# xmcd
#
# Track frame offsets: 
#        150
#        17081
#        39277
#        54304
#        70605
#        90447
#        106932
#        123079
#        137268
#        158585
#        170490
#        183081
#        197174
#        209888
#
# Disc length: 3068 seconds
#
# Revision: 0
# Processed by: cddbd v1.5.2PL0 Copyright (c) Steve Scherf et al.
# Submitted via: ExactAudioCopyFreeDBPlugin 1.0
#
DISCID=ab0bfa0e
DTITLE=Vários Artistas - Samba em Dueto
DYEAR=2009
DGENRE=Samba
TTITLE0=Ressuscita Ele
TTITLE1=Desaforo
TTITLE2=Doces Recordações
TTITLE3=Na Gira do Mundo
TTITLE4=Um Samba Pro Ciro Monteiro
TTITLE5=Piranha
TTITLE6=Dez Mandamentos
TTITLE7=Afina Meu Violão
TTITLE8=Feirinha da Pavuna
TTITLE9=Falso Amor Sincero
TTITLE10=Garrafada do Norte (Erva Proibida)
TTITLE11=Coração Poeta
TTITLE12=Roubo do Cabrito
TTITLE13=O Pagode Tem Raiz - Me Leva pra Sua Casa
EXTD=
EXTT0=
EXTT1=
EXTT2=
EXTT3=
EXTT4=
EXTT5=
EXTT6=
EXTT7=
EXTT8=
EXTT9=
EXTT10=
EXTT11=
EXTT12=
EXTT13=
PLAYORDER=
